<svg xmlns="http://www.w3.org/2000/svg" version="1.1" xmlns:xlink="http://www.w3.org/1999/xlink" xmlns:svgjs="http://svgjs.dev/svgjs" width="1500" height="1500" viewBox="0 0 1500 1500"><rect width="1500" height="1500" fill="#000000"></rect><g transform="matrix(0.6666666666666666,0,0,0.6666666666666666,249.39393939393938,435.9903225806451)"><svg viewBox="0 0 396 248" data-background-color="#1f2937" preserveAspectRatio="xMidYMid meet" height="939" width="1500" xmlns="http://www.w3.org/2000/svg" xmlns:xlink="http://www.w3.org/1999/xlink"><g id="tight-bounds" transform="matrix(1,0,0,1,0.2400000000000091,0.4000000000000057)"><svg viewBox="0 0 395.52 247.2" height="247.2" width="395.52"><g><svg></svg></g><g><svg viewBox="0 0 395.52 247.2" height="247.2" width="395.52"><g transform="matrix(1,0,0,1,75.54432,102.639527176781)"><svg viewBox="0 0 244.43135999999998 41.92094564643799" height="41.92094564643799" width="244.43135999999998"><g><svg viewBox="0 0 244.43135999999998 41.92094564643799" height="41.92094564643799" width="244.43135999999998"><g><svg viewBox="0 0 244.43135999999998 41.92094564643799" height="41.92094564643799" width="244.43135999999998"><g><svg viewBox="0 0 244.43135999999998 41.92094564643799" height="41.92094564643799" width="244.43135999999998"><g id="textblocktransform"><svg viewBox="0 0 244.43135999999998 41.92094564643799" height="41.92094564643799" width="244.43135999999998" id="textblock"><g><svg viewBox="0 0 244.43135999999998 41.92094564643799" height="41.92094564643799" width="244.43135999999998"><g transform="matrix(1,0,0,1,0,0)"><svg width="244.43135999999998" viewBox="4.7 -32.15 189.48000000000002 32.5" height="41.92094564643799" data-palette-color="#3ffd3a"><path d="M29.5-32.15L29.25-9.4 29.35 0 25.15 0 8.55-25.65 8.3-25.65 8.25-10.55 8.3 0 4.7 0 4.85-9.5 4.75-32.05 8.9-32.05 25.45-6.4 25.8-6.4 25.75-31.85 29.5-32.15ZM49.3-24.9L58.05 0 54.3 0 53.7-2.7 52.4-6.4 46.45-6.45 41.15-6.4 39.8-2.9 39.1 0 35.4 0 45-24.9 49.3-24.9ZM46.75-9.4L51.35-9.45 47.2-21.25 46.9-21.25 42.35-9.45 46.75-9.4ZM77.05-24.9L77.25-24.6 77-21.45 72.34-21.8 69.84-21.8 69.7-7.8 69.84 0 66.09 0 66.25-7.5 66.15-21.8 63.65-21.8 58.9-21.45 58.6-21.8 58.9-24.9 77.05-24.9ZM102.64-24.9L102.49-12.25 102.49-8.65Q102.54-4.4 99.92-2.05 97.29 0.3 92.39 0.3L92.39 0.3Q87.54 0.3 84.99-2.02 82.44-4.35 82.54-8.65L82.54-8.65 82.59-12.45 82.54-24.9 86.29-24.9 86.09-9.25Q86.04-6.1 87.67-4.5 89.29-2.9 92.54-2.9L92.54-2.9Q95.74-2.9 97.39-4.5 99.04-6.1 98.99-9.25L98.99-9.25 98.84-24.9 102.64-24.9ZM122.24-10.05Q125.29-5.4 128.99-0.9L128.99-0.9 128.94-0.4Q126.84 0.25 125.49 0.35L125.49 0.35 124.84-0.05Q121.04-5.8 119.09-9.1L119.09-9.1 114.39-9.05 114.39-7.8 114.49 0 110.79 0 110.94-7.5 110.79-24.9 119.29-24.95Q123.24-24.95 125.37-23.1 127.49-21.25 127.49-17.75L127.49-17.75Q127.49-15.2 126.12-13.2 124.74-11.2 122.24-10.05L122.24-10.05ZM114.49-21.9L114.44-12.15 119.14-12Q123.59-13.25 123.59-17.45L123.59-17.45Q123.59-19.65 122.29-20.75 120.99-21.85 118.34-21.95L118.34-21.95 114.49-21.9ZM146.24-24.9L154.99 0 151.24 0 150.64-2.7 149.34-6.4 143.39-6.45 138.09-6.4 136.74-2.9 136.04 0 132.34 0 141.94-24.9 146.24-24.9ZM143.69-9.4L148.29-9.45 144.14-21.25 143.84-21.25 139.29-9.45 143.69-9.4ZM174.38-3.15L174.59-2.8 174.34 0 161.09 0 161.24-7.5 161.09-24.9 164.84-24.9 164.69-7.8 164.78-3.15 174.38-3.15ZM187.38-25.15Q190.43-25.15 193.48-23.95L193.48-23.95 192.83-20.25 192.23-20.1Q190.83-21.2 189.58-21.73 188.33-22.25 186.98-22.25L186.98-22.25Q184.83-22.25 183.58-21.13 182.33-20 182.33-18.55L182.33-18.55Q182.33-17.1 183.56-16.2 184.78-15.3 187.33-14.2L187.33-14.2Q189.58-13.2 190.91-12.4 192.23-11.6 193.21-10.28 194.18-8.95 194.18-7.05L194.18-7.05Q194.18-5.1 193.13-3.43 192.08-1.75 190.06-0.73 188.03 0.3 185.23 0.3L185.23 0.3Q183.48 0.3 181.56-0.13 179.63-0.55 177.98-1.4L177.98-1.4 178.43-5.35 178.93-5.55Q180.33-4.15 182.21-3.38 184.08-2.6 185.68-2.6L185.68-2.6Q187.78-2.6 189.13-3.73 190.48-4.85 190.48-6.45L190.48-6.45Q190.48-7.95 189.26-8.85 188.03-9.75 185.43-10.95L185.43-10.95Q183.28-11.9 181.91-12.7 180.53-13.5 179.58-14.83 178.63-16.15 178.63-18.05L178.63-18.05Q178.63-20.05 179.71-21.65 180.78-23.25 182.76-24.2 184.73-25.15 187.38-25.15L187.38-25.15Z" opacity="1" transform="matrix(1,0,0,1,0,0)" fill="#ffffff" class="wordmark-text-0" data-fill-palette-color="primary" id="text-0"></path></svg></g></svg></g></svg></g></svg></g><g></g></svg></g></svg></g></svg></g><g><path d="M79.504 92.743A122.216 122.216 0 0 1 316.016 92.743L312.236 92.743A118.435 118.435 0 0 0 83.284 92.743L79.504 92.743M79.504 154.457A122.216 122.216 0 0 0 316.016 154.457L312.236 154.457A118.435 118.435 0 0 1 83.284 154.457L79.504 154.457" fill="#ffffff" stroke="transparent" data-fill-palette-color="tertiary"></path></g></svg></g><defs></defs></svg><rect width="395.52" height="247.2" fill="none" stroke="none" visibility="hidden"></rect></g></svg></g></svg>